<?xml version="1.0" encoding="UTF-8"?>
<svg width="200" height="200" viewBox="0 0 200 200" fill="none" xmlns="http://www.w3.org/2000/svg">
  <circle cx="100" cy="100" r="80" fill="#2F855A" fill-opacity="0.1"/>
  <path d="M100 40C100 40 120 60 120 80C120 100 100 120 100 120C100 120 80 100 80 80C80 60 100 40 100 40Z" fill="#2F855A"/>
  <path d="M100 120C100 120 120 140 120 160C120 180 100 200 100 200C100 200 80 180 80 160C80 140 100 120 100 120Z" fill="#2F855A"/>
  <path d="M80 100C60 100 40 100 40 100C40 100 60 80 80 80C100 80 120 80 120 80C120 80 100 100 80 100Z" fill="#2F855A"/>
  <path d="M120 100C140 100 160 100 160 100C160 100 140 120 120 120C100 120 80 120 80 120C80 120 100 100 120 100Z" fill="#2F855A"/>
</svg>
